<svg width="216" height="216" viewBox="0 0 216 216" fill="none" xmlns="http://www.w3.org/2000/svg">
<circle cx="107.461" cy="107.934" r="102.545" stroke="white" stroke-width="9.83158"/>
<path d="M147.569 14.8524C126.985 29.3822 80.7215 145.773 61.2979 199.503L77.9467 206.314C93.8387 156.115 131.677 45.7284 152.866 14.8524H147.569Z" fill="white"/>
<path d="M85.2366 117.925C69.3445 112.628 59.5066 97.4124 54.2093 93.6285C42.8578 74.6352 42.8578 67.0676 42.8578 55.8706C52.6956 59.6544 58.7498 65.5544 73.1283 82.2031C87.5068 98.8518 85.2366 108.445 85.2366 117.925Z" fill="white"/>
<path d="M109.267 145.034C120.725 132.813 141.127 128.569 146.779 125.34C168.779 122.971 171.175 125.955 181.346 130.637C173.795 137.991 167.915 142.875 146.779 148.973C125.643 155.072 117.878 148.998 109.267 145.034Z" fill="white"/>
<path d="M111.093 52.4413C103.854 49.1092 98.1395 40.3768 95.8314 38.3119C91.4517 28.7395 89.9514 25.4445 90.534 20.1496C94.9893 22.4508 102.007 25.9072 107.94 34.5284C113.873 43.1496 111.587 47.9585 111.093 52.4413Z" fill="white"/>
<path d="M134.942 79.4375C138.21 70.0958 152.589 67.7931 155.946 67.7931C167.996 66.6613 174.266 67.3148 179.832 70.0958C175.691 74.2253 167.227 79.7617 155.647 83.0357C144.067 86.3096 139.654 81.792 134.942 79.4375Z" fill="white"/>
<circle cx="62.5339" cy="131.394" r="12.865" fill="white"/>
<circle cx="113.993" cy="172.259" r="12.865" fill="white"/>
</svg>
